inDegrees=no
num_controls=7
num_derivatives=13
num_iterations=151
num_multipliers=7
num_parameters=0
num_slacks=7
num_states=26
objective=0.523898
objective_accelerations=0.030075
objective_balance=0.002007
objective_effort=0.034469
objective_height=0.444774
objective_ligament=0.012573
solver_duration=1964.785814
status=Solve_Succeeded
success=true
DataType=double
version=3
OpenSimVersion=4.5
endheader
time	/jointset/ground_pelvis/pelvis_tilt/value	/jointset/ground_pelvis/pelvis_tx/value	/jointset/ground_pelvis/pelvis_ty/value	/jointset/hip_l/hip_flexion_l/value	/jointset/hip_l/hip_adduction_l/value	/jointset/hip_l/hip_rotation_l/value	/jointset/back/lumbar_extension/value	/jointset/patellofemoral_l/patellar_flexion_l/value	/jointset/knee_l/knee_flexion_l/value	/jointset/knee_l/knee_adduction_l/value	/jointset/knee_l/knee_rotation_l/value	/jointset/ankle_l/ankle_angle_l/value	/jointset/subtalar_l/subtalar_angle_l/value	/jointset/ground_pelvis/pelvis_tilt/speed	/jointset/ground_pelvis/pelvis_tx/speed	/jointset/ground_pelvis/pelvis_ty/speed	/jointset/hip_l/hip_flexion_l/speed	/jointset/hip_l/hip_adduction_l/speed	/jointset/hip_l/hip_rotation_l/speed	/jointset/back/lumbar_extension/speed	/jointset/patellofemoral_l/patellar_flexion_l/speed	/jointset/knee_l/knee_flexion_l/speed	/jointset/knee_l/knee_adduction_l/speed	/jointset/knee_l/knee_rotation_l/speed	/jointset/ankle_l/ankle_angle_l/speed	/jointset/subtalar_l/subtalar_angle_l/speed	/forceset/tau_hip_flexion_l	/forceset/tau_hip_adduction_l	/forceset/tau_hip_rotation_l	/forceset/tau_knee_flexion_l	/forceset/tau_ankle_angle_l	/forceset/tau_subtalar_angle_l	/forceset/tau_lumbar_extension	lambda_cid13_p0	lambda_cid13_p1	lambda_cid13_p2	lambda_cid13_p3	lambda_cid13_p4	lambda_cid13_p5	lambda_cid14_p0	/jointset/ground_pelvis/pelvis_tilt/accel	/jointset/ground_pelvis/pelvis_tx/accel	/jointset/ground_pelvis/pelvis_ty/accel	/jointset/hip_l/hip_flexion_l/accel	/jointset/hip_l/hip_adduction_l/accel	/jointset/hip_l/hip_rotation_l/accel	/jointset/back/lumbar_extension/accel	/jointset/patellofemoral_l/patellar_flexion_l/accel	/jointset/knee_l/knee_flexion_l/accel	/jointset/knee_l/knee_adduction_l/accel	/jointset/knee_l/knee_rotation_l/accel	/jointset/ankle_l/ankle_angle_l/accel	/jointset/subtalar_l/subtalar_angle_l/accel	gamma_cid13_p0	gamma_cid13_p1	gamma_cid13_p2	gamma_cid13_p3	gamma_cid13_p4	gamma_cid13_p5	gamma_cid14_p0
0	-0.03680746575079018	0.05667076677053011	0.9203418690996075	0.3085816938045678	-0.2956356071478902	-0.3015050011732717	-0.3879492264334186	0.2499269421185032	0.2499269421184919	-0.1745326249918871	-0.1744323086813338	-0.0008036623358878681	0.0004413352170162211	0	0	0	0	0	0	0	0	0	0	0	0	0	0.04472302433084537	-0.02908313550238184	-0.01724071710925324	-0.2207857544720347	0.165481630726646	-0.01200145317171348	0.02966703477768126	8.549900611975399	0.8777330059776446	2.646833951977992	12.47765214063426	-643.967095509448	-71.40488194101334	-23.19360385201561	-0.5839926357343043	-1.680791001882462	-0.6062119807978488	6.244758803589068	-0.416036080044432	1.993102064046074	-6.218861904110232	5.755687985196544	5.755687985196783	0.9820012346216166	-0.06556936988764181	0.4441245814520205	-0.302186316934092	2.07355177440881e-09	5.293196675298588e-08	1.874577293558102e-08	-3.892174111146359e-09	4.193497873894237e-08	6.102388862359002e-09	2.000451639945921e-09
0.01	-0.03683414240598306	0.05658756810245712	0.9203122093702966	0.3088864259283892	-0.2956565224920778	-0.3014050456863777	-0.3882588105799826	0.2502086833340746	0.2502086833340827	-0.1744859103732537	-0.1744335000524531	-0.0007829421679333517	0.0004255905882612231	-0.005301143378569417	-0.01657063759820759	-0.005908892130293669	0.06066177263788753	-0.004157937236554671	0.01990530338200146	-0.06155607521439119	0.0560771601913195	0.05607716019131923	0.009300948008631661	-0.0002235819521171	0.004110029824745402	-0.003133682574618367	0.03949882477679472	-0.03610541032032409	-0.01639214888969926	-0.2152643838620838	0.1559353954203464	-0.001448769506050755	0.03421727550992759	5.80035780210607	-3.19099439217167	3.257945786803813	13.14576170183843	-645.8070466378252	-79.51692710498311	-23.19685018866772	-0.4980496597312324	-1.634836515579881	-0.5797613823878454	5.934186838729871	-0.4119138054998686	1.976375076701982	-6.069867214784374	5.493067197356934	5.493067197356766	0.8978559213817332	0.00145275861132273	0.3893432508002202	-0.3166834025154175	-5.108045280992483e-09	5.498329732981657e-08	5.033758377515591e-08	2.390270385853884e-09	1.414170488293699e-08	-6.52770014336544e-09	-1.388508650240618e-09
0.02	-0.03691280538913615	0.05634073578304307	0.9202241540090341	0.3097892358475502	-0.2957182654606382	-0.3011086110453773	-0.3891731328556287	0.251043063583835	0.251043063583834	-0.1743474434069968	-0.1744364861697579	-0.0007221414881685715	0.0003789642988020712	-0.01039726558961198	-0.03272673026820946	-0.01167912639029442	0.1196155590694153	-0.008165524874664399	0.03929583082099895	-0.1209476258159693	0.1105278068329315	0.1105278068329324	0.01835046951317405	-0.0003589492448351234	0.008016102362064716	-0.006176332140827126	0.03427462522275806	-0.04312768513827285	-0.01554358067035024	-0.2097430132520919	0.146389160114055	0.0091039141596108	0.03876751624218436	3.094749389577462	-7.265751375484041	3.868119171448004	13.77808162334072	-646.967608519274	-87.57137872246744	-23.20640241976389	-0.542988402228609	-1.597882016241606	-0.5784804067392741	5.903161562317151	-0.3859661603554704	1.890146875445273	-5.785956981547428	5.43038527525509	5.43038527525562	0.9317159338037247	-0.04792643800787227	0.403333123966471	-0.2839797152523129	-1.228964233639378e-08	5.703462790664725e-08	8.192939461473079e-08	8.672714882854129e-09	-1.365156897306839e-08	-1.915778914908988e-08	-4.777468940427156e-09
0.03	-0.03704134748212527	0.05593542566737997	0.92007914485828	0.3112716329063163	-0.2958190888393382	-0.3006213556638157	-0.390668179056133	0.2524136357181846	0.2524136357181808	-0.1741193621444205	-0.1744406305755868	-0.0006220140411926285	0.000303068442025685	-0.01525402919326819	-0.04816513177619316	-0.01729164322845167	0.1764175047257951	-0.01195471584380106	0.05804518511688696	-0.1774833086911142	0.1632953264441721	0.1632953264441747	0.02724917953748036	-0.0004559059043983302	0.01210596056785894	-0.008922322464768723	0.02804974534361575	-0.03732805788925801	-0.01501128691764184	-0.2059500315331901	0.1454786804073399	0.006713995167232558	0.04490094328388895	2.638633130857784	-6.196782257313788	3.753478020921538	12.50021939738744	-649.3053201087349	-84.51341641958965	-23.22190699371847	-0.4484544192615034	-1.491293295718235	-0.5479810851703196	5.501755803576681	-0.3687479498948584	1.850809953587832	-5.500628100904043	5.156242234497955	5.156242234497837	0.8664744131795789	0.01153658722237856	0.4263000852812162	-0.2578498503390501	-2.272731123037525e-08	6.127002170781839e-08	9.679583054799316e-08	2.406496646795265e-08	-7.346487256038457e-08	-3.149154486297098e-08	-4.713773108833635e-09
0.04	-0.03721674402712702	0.05538083672110786	0.9198789417865811	0.3133086583688947	-0.2959564746046696	-0.2999499106899085	-0.3927112329174723	0.2543031444347329	0.2543031444347328	-0.1738027886063059	-0.1744453211745773	-0.0004780904288798121	0.000202124450135048	-0.01976815598996995	-0.06258249639001427	-0.02271791057926638	0.2305412398333007	-0.01547800220102123	0.07613374928986652	-0.2305491579824566	0.2143151232729893	0.2143151232729909	0.03604892461920628	-0.0004681878778445661	0.01677533542946259	-0.01118595916367058	0.02182486546447208	-0.03152843064024689	-0.01447899316492689	-0.2021570498142911	0.1445682007006243	0.004324076174850261	0.05103437032559548	2.223034626538368	-5.132830489717686	3.637264226230203	11.18287088333163	-651.0249302555051	-81.40015354251567	-23.2429300865107	-0.4744610408373923	-1.393674637409376	-0.5412305092707733	5.36751945254235	-0.3327852379721604	1.757988850863579	-5.091990264786728	5.080840718770438	5.080840718770463	0.9119229452876793	-0.03099150078450621	0.5192364551280402	-0.1875089902444667	-3.323211562618312e-08	6.555044774041923e-08	1.113174133904038e-07	3.964504912703259e-08	-1.339383829462845e-07	-4.381919061207181e-08	-4.57888849122403e-09
0.05	-0.03743619636562481	0.0546862994599452	0.9196250824653908	0.3158759085471882	-0.2961281762110173	-0.2991005881159761	-0.3952708490687945	0.2566951518724735	0.2566951518724726	-0.1733993218388743	-0.174449943721091	-0.0002854923219862468	8.020645327143758e-05	-0.02410859989795975	-0.07624106082991711	-0.02805149724913417	0.282657829976207	-0.01886306314635841	0.09364844631665668	-0.2811400545836778	0.2638701226196844	0.2638701226196862	0.04454993761879022	-0.0004607908463963797	0.0217389351367782	-0.01319964336435296	0.0191558858525673	-0.03189822767468405	-0.01429914744568199	-0.2019177931464873	0.1450781320162014	0.005522874653231893	0.0537367851490277	2.444428086187353	-5.671306348599496	3.699208752816595	10.29194872996639	-651.3479626149091	-82.10152683908633	-23.26895276827751	-0.411779305475524	-1.339355041253562	-0.5290815607572121	5.096080794728639	-0.3414997284828575	1.735847367803374	-5.007536702550191	4.860394209101291	4.86039420910127	0.805037536603683	0.01595264225813673	0.4841197828161781	-0.2086216763585465	-4.040285459569782e-08	4.222258446055967e-08	1.351247399308386e-07	4.367620940028288e-08	-1.635406706446411e-07	-6.112501580479063e-08	-9.756856050571018e-09
0.06	-0.037698641791152	0.0538576950155881	0.9193179555145191	0.318956795026816	-0.2963337550679516	-0.2980785911239311	-0.398329353655083	0.2595762222369795	0.2595762222369795	-0.1729136755295804	-0.1744546228298524	-4.341860716307533e-05	-6.191309387471955e-05	-0.02836677339373332	-0.0893959330289029	-0.03337143651549248	0.3332685001016626	-0.02225345231842965	0.1106686329121139	-0.3303268449752728	0.3121277086256701	0.3121277086256719	0.05248483299077149	-0.0004795003290019423	0.02667045701540499	-0.01522626922017364	0.01648690624066045	-0.03226802470912547	-0.01411930172645731	-0.2016785364786808	0.1455880633317793	0.006721673131609743	0.05643919997246032	2.702734479414306	-6.214720447402462	3.760198547620888	9.360070288721952	-651.1083384750776	-82.75234820325251	-23.29950955757268	-0.458006958393831	-1.292936189226245	-0.5385010285688836	5.066335449052239	-0.3338508833189581	1.659086764597002	-4.811169022861318	4.821358050628601	4.821358050628614	0.7986994197671898	-0.03621280359527071	0.5128208893899717	-0.1900973212722166	-4.743321186305282e-08	1.773226689385968e-08	1.593230451532956e-07	4.722109925728771e-08	-1.918431173877328e-07	-7.864044855303021e-08	-1.515852264894775e-08
0.07000000000000001	-0.03800324594603042	0.05290021842558928	0.9189576904632202	0.3225360194845256	-0.2965730177340778	-0.2968893143539514	-0.4018715304834332	0.2629332391069426	0.2629332391069392	-0.172351086585402	-0.1744598785273672	0.0002479747406169489	-0.0002240471377722219	-0.03252461922434429	-0.101999291139005	-0.03867737807500572	0.3822791945935215	-0.0255758598598646	0.1270961498620257	-0.3777728857810883	0.3590318859140128	0.3590318859140146	0.05997256770023307	-0.0005628395980120947	0.03161755155933741	-0.0171727140220434	0.01169400694025514	-0.03065483541573406	-0.01364595862562241	-0.1993360626869635	0.1437947341139111	0.007521276144375692	0.06088450809801137	2.168786941515845	-6.473828768884566	3.807596866075453	8.817310452285142	-651.5629990333081	-82.57589388853643	-23.33407195986927	-0.3902568653269262	-1.229012060674133	-0.5260500809473279	4.773853477589281	-0.3279715911256589	1.620973247041408	-4.660976371924195	4.588383747333127	4.588383747333066	0.7147687335953637	0.00695362510157531	0.4870539094923292	-0.1927650770159278	-5.258554429674704e-08	-5.256058496955305e-09	1.744265798595569e-07	5.017645284475564e-08	-2.153511801693795e-07	-9.104415655779505e-08	-1.919383233759787e-08
0.08	-0.03834854525321139	0.05181971296673426	0.9185444841240651	0.3265964342928141	-0.2968448116559319	-0.2955384845971009	-0.4058780986723401	0.2667519849856664	0.2667519849856664	-0.1717154286467146	-0.1744656979948382	0.0005891190683556708	-0.0004048150331627721	-0.03650580385219795	-0.1140017068001449	-0.04395969408671901	0.4295065702188378	-0.02875970346409542	0.1429792302860645	-0.4232051170861657	0.4044735103781965	0.4044735103781977	0.06709863189208436	-0.0005922543208029326	0.03662065300716522	-0.01895303951877689	0.006901107639848377	-0.02904164612234389	-0.01317261552477676	-0.1969935888952488	0.1420014048960437	0.008320879157140481	0.06532981622356286	1.668507145452944	-6.737244360814834	3.853868355381494	8.232650876314977	-651.5077312331815	-82.353476595158	-23.37203388402437	-0.4226747178420628	-1.172747699434081	-0.5337759190089002	4.709671675743762	-0.3061380958781134	1.550199459422447	-4.40840712271354	4.528847485796812	4.528847485796738	0.7263653162451797	-0.02542789435140878	0.5240222701687612	-0.1568734602450443	-5.761671383794701e-08	-2.814748116674542e-08	1.889433551776766e-07	5.309377183418895e-08	-2.385499278567394e-07	-1.031180758694325e-07	-2.314098996755594e-08
0.09	-0.03873288845579646	0.05062227278156247	0.9180785353179367	0.3311203153083708	-0.2971476879894212	-0.2940318722503414	-0.4103284337919013	0.2710179656426754	0.2710179656426726	-0.1710101622265271	-0.17447185864908	0.0009807142146747137	-0.0006024389774918211	-0.04032802419626416	-0.1253769917328098	-0.04922675263802532	0.4749540481835303	-0.0317873040486636	0.1582458070455841	-0.4664954563972284	0.4484738367975441	0.4484738367975396	0.07389952830866116	-0.0006328284684871816	0.04171750946770789	-0.02053536635963197	0.001368471239459978	-0.02733197375423825	-0.01263356940278995	-0.1943854681488131	0.1398534856963171	0.009392646264642594	0.07043675808714915	1.038435709792732	-7.09588839688663	3.915039838761326	7.657413167766847	-651.909706804843	-82.26240641425284	-23.41272508359213	-0.3567719817272586	-1.103507449778102	-0.5227217329836611	4.414944858306343	-0.2968469700109098	1.50023963445883	-4.234379770535505	4.298312278218014	4.298312278217185	0.6486941402895283	0.007720072077145215	0.5053853279141752	-0.1534717163662938	-6.14678639000381e-08	-5.024461765621814e-08	1.982092036446431e-07	5.513010038947453e-08	-2.558678116508501e-07	-1.124269648029625e-07	-2.643259870588421e-08
